<svg class="symbol u-middle--abs" id="Layer_1" data-name="Layer 1" xmlns="http://www.w3.org/2000/svg" viewBox="0 0 37.63 100.59"><defs><style>.sound-1{stroke:#fff;stroke-miterlimit:10;stroke-width:.5px;fill:#fff}</style></defs><title>sound</title><path class="sound-1" d="M37.38 64.7c0-10.55-8.79-17.53-18.11-14.91a363.2 363.2 0 0 0-2.71-7.62c3.81-5 9.1-13.47 10.14-20.4A25.69 25.69 0 0 0 19.52.34C8 10.36 6.55 25.6 11.93 38.82 3.77 49.31.4 56.07.25 64.13c-.18 9.8 7 19 18.3 19a20 20 0 0 0 5.69-.8c.39 9.84-2 13.14-3.86 13.56-.74.17-.87-.26-.57-.58 2.18-2.37.48-7.93-4.13-7.93-3.61 0-5.62 3.08-5.58 6.24 0 3.33 2.36 6.74 7.49 6.74 5.34 0 10.66-4.95 9.6-19.19A18.9 18.9 0 0 0 37.38 64.7zm-23.07-44c1.15-6.2 3.9-10.2 6.89-13.87 2.44 3.75 3.1 10.35 1.26 15.17s-4.29 8.65-8.13 13.71c-1.14-4.46-1.13-8.99-.02-14.98zM3.86 65.5c0-7.84 4.34-13.44 10.54-20.64.75 1.94 1.49 4 2.21 6C10.69 54.25 7.75 63 12 68.72l1.85-.72c-1.59-5.67.6-10.4 4.38-12.38 2.91 9 5.19 17.86 5.77 23a11.46 11.46 0 0 1-5.44 1.52A14.55 14.55 0 0 1 3.86 65.5zm22.85 11.29a154 154 0 0 0-5.77-22c7-1.17 11.28 4.3 11.28 11.21 0 4-2.33 8.06-5.51 10.79z"></path></svg>